# xmcd
#
# Track frame offsets:
#	182
#	10520
#	22032
#	31600
#	43130
#	51457
#	63247
#	74757
#	87165
#	97270
#	110740
#	120080
#	131792
#	143395
#
# Disc length: 2055 seconds
#
# Revision: 1
# Processed by: cddbd v1.5.2PL0 Copyright (c) Steve Scherf et al.
# Submitted via: EZCDAudioConverter 9.0.5.1
#
DISCID=be08050e
DTITLE=Beatles - Beatles For Sale (Japan CP32-5324) DE-Magnetic (EZ-9.05-WAV)
DYEAR=1964
DGENRE=Retrospective Pop
TTITLE0=No Reply
TTITLE1=I'm A Loser
TTITLE2=Baby's In Black
TTITLE3=Rock And Roll Music
TTITLE4=I'll Follow The Sun
TTITLE5=Mr. Moonlight
TTITLE6=Kansas City - Hey-Hey-Hey-Hey!
TTITLE7=Eight Days A Week
TTITLE8=Words Of Love
TTITLE9=Honey Don't
TTITLE10=Every Little Thing
TTITLE11=I Don't Want To Spoil The Party
TTITLE12=What You're Doing
TTITLE13=Everybody's Trying To Be My Baby
EXTD=
EXTT0=
EXTT1=
EXTT2=
EXTT3=
EXTT4=
EXTT5=
EXTT6=
EXTT7=
EXTT8=
EXTT9=
EXTT10=
EXTT11=
EXTT12=
EXTT13=
PLAYORDER=
